<svg xmlns="http://www.w3.org/2000/svg" version="1.1" xmlns:xlink="http://www.w3.org/1999/xlink" width="1000" height="1000"><metadata><rdf:RDF xmlns:rdf="http://www.w3.org/1999/02/22-rdf-syntax-ns#" xmlns:dc="http://purl.org/dc/elements/1.1/"><rdf:Description><dc:creator>RealFaviconGenerator</dc:creator><dc:source>https://realfavicongenerator.net</dc:source></rdf:Description></rdf:RDF></metadata><g clip-path="url(#SvgjsClipPath1154)"><rect width="1000" height="1000" fill="#ffffff"></rect><g transform="matrix(1.953125,0,0,1.953125,0,0)"><svg xmlns="http://www.w3.org/2000/svg" width="512" height="512" viewBox="0 0 512 512" fill="none"><g clip-path="url(#clip0_7_5)">
<rect width="512" height="512" fill="#1D2021"></rect>
<path d="M179.748 313.632V279.84L306.212 138.016C311.673 131.531 315.599 126.069 317.988 121.632C320.377 117.195 321.572 112.757 321.572 108.32C321.572 97.3973 313.38 91.0826 296.996 89.376L282.148 87.84V70.944L352.804 72.48L414.756 70.944V87.328L400.932 89.376C392.057 90.7413 383.183 94.496 374.308 100.64C365.433 106.784 355.193 116.341 343.588 129.312L179.748 313.632ZM80.42 437.536V420.64L90.66 419.616C102.265 418.592 110.799 416.715 116.26 413.984C121.721 410.912 125.305 405.963 127.012 399.136C128.719 391.968 129.572 381.557 129.572 367.904V140.576C129.572 126.581 128.719 116.171 127.012 109.344C125.305 102.176 121.551 97.2266 115.748 94.496C110.287 91.424 101.924 89.376 90.66 88.352L80.42 87.328V70.944L160.292 72.48L236.068 70.944V87.84L225.828 88.864C215.588 89.5466 207.908 91.424 202.788 94.496C197.668 97.568 194.255 102.688 192.548 109.856C190.841 116.683 189.988 126.923 189.988 140.576V367.904C189.988 381.899 190.841 392.48 192.548 399.648C194.255 406.475 197.668 411.253 202.788 413.984C208.249 416.715 216.271 418.592 226.852 419.616L236.58 420.64V437.536L159.78 436L80.42 437.536ZM295.972 437.536V420.64L303.652 420.128C319.353 419.104 327.204 413.813 327.204 404.256C327.204 400.843 326.18 397.259 324.132 393.504C322.425 389.408 319.183 383.947 314.404 377.12L222.244 245.536L267.812 201.504L368.676 348.448C381.647 366.88 392.399 381.216 400.932 391.456C409.465 401.355 417.316 408.523 424.484 412.96C431.993 417.056 439.844 419.445 448.036 420.128L457.252 421.152V437.536L384.548 436L295.972 437.536Z" fill="#FABD2F"></path>
</g><defs>
<clipPath id="clip0_7_5">
<rect width="512" height="512" fill="white"></rect>
</clipPath>
<clipPath id="SvgjsClipPath1154"><rect width="1000" height="1000" x="0" y="0" rx="50" ry="50"></rect></clipPath></defs></svg></g></g></svg>