<svg width="512" height="512" viewBox="0 0 512 512" fill="none" xmlns="http://www.w3.org/2000/svg">
<g clip-path="url(#clip0_1_2)">
<path d="M328.114 77.8936L329.287 79.0684L330.948 79.0674L433.016 78.9834L432.933 181.052L432.932 182.713L434.106 183.886L506.338 256L434.106 328.114L432.932 329.287L432.933 330.948L433.016 433.016L330.948 432.933L329.287 432.932L328.114 434.106L256 506.338L183.886 434.106L182.713 432.932L181.052 432.933L78.9834 433.016L79.0674 330.948L79.0684 329.287L77.8936 328.114L5.66113 256L77.8936 183.886L79.0684 182.713L79.0674 181.052L78.9834 78.9834L181.052 79.0674L182.713 79.0684L183.886 77.8936L256 5.66113L328.114 77.8936Z" stroke="#FABD2F" stroke-width="8"/>
<path d="M319.618 422.28L257 485L194.382 422.28L201.508 415.167L257 470.749L312.493 415.167L319.618 422.28Z" fill="#FABD2F"/>
<path d="M105.919 330.629L105.855 408.144L185.887 408.079L185.896 418.147L95.7793 418.221L95.8505 330.621L105.919 330.629Z" fill="#FABD2F"/>
<path d="M418.221 418.221L330.621 418.149L330.629 408.081L408.144 408.144L408.077 326.853L418.146 326.846L418.221 418.221Z" fill="#FABD2F"/>
<path d="M98.3 202.041L43.2496 257L100.19 313.847L93.0778 320.973L29 257L91.1863 194.915L98.3 202.041Z" fill="#FABD2F"/>
<path d="M485 257L422.814 319.086L415.7 311.959L470.749 257L414.439 200.782L421.553 193.656L485 257Z" fill="#FABD2F"/>
<path d="M185.896 95.853L185.887 105.921L105.855 105.855L105.921 185.887L95.853 185.896L95.7793 95.7793L185.896 95.853Z" fill="#FABD2F"/>
<path d="M418.149 182.749L408.081 182.741L408.144 105.855L326.853 105.921L326.846 95.853L418.221 95.7793L418.149 182.749Z" fill="#FABD2F"/>
<path d="M318.99 91.0904L311.864 98.2042L256.999 43.2496L200.153 100.19L193.027 93.0778L257 29L318.99 91.0904Z" fill="#FABD2F"/>
<path d="M301.276 398.151L256.5 443L213.625 400.055L220.801 392.893L256.499 428.65L294.1 390.988L301.276 398.151Z" fill="#FABD2F"/>
<path d="M134.811 328.106L134.771 378.227L186.16 378.186L186.168 388.325L124.625 388.374L124.673 328.099L134.811 328.106Z" fill="#FABD2F"/>
<path d="M388.375 388.374L325.565 388.324L325.573 378.185L378.228 378.227L378.185 324.938L388.323 324.931L388.375 388.374Z" fill="#FABD2F"/>
<path d="M118.838 222.068L84.3489 256.498L121.377 293.466L114.214 300.641L70 256.499L111.674 214.892L118.838 222.068Z" fill="#FABD2F"/>
<path d="M443 256.499L399.487 299.942L392.323 292.768L428.65 256.499L392.323 220.232L399.487 213.057L443 256.499Z" fill="#FABD2F"/>
<path d="M182.366 124.671L182.358 134.81L134.771 134.77L134.814 186.793L124.675 186.801L124.625 124.624L182.366 124.671Z" fill="#FABD2F"/>
<path d="M388.327 184.266L378.189 184.259L378.228 134.77L325.573 134.814L325.565 124.675L388.375 124.624L388.327 184.266Z" fill="#FABD2F"/>
<path d="M298.678 112.246L291.502 119.409L256.5 84.3489L221.498 119.409L214.322 112.246L256.5 70L298.678 112.246Z" fill="#FABD2F"/>
<path d="M252.04 153.942L254.953 156.926L257.812 153.892L326.492 81.0429L325.292 181.156L325.243 185.325L329.41 185.202L429.485 182.254L357.847 252.195L354.864 255.108L357.897 257.968L430.744 326.647L330.633 325.448L326.465 325.397L326.587 329.565L329.535 429.64L259.594 358.002L256.682 355.019L253.822 358.052L185.14 430.901L186.342 330.789L186.393 326.62L182.224 326.743L82.1481 329.69L153.787 259.749L156.771 256.837L153.737 253.977L80.8873 185.296L181.001 186.497L185.17 186.547L185.046 182.38L182.099 82.3033L252.04 153.942Z" stroke="#FABD2F" stroke-width="8"/>
<path fill-rule="evenodd" clip-rule="evenodd" d="M297.6 194.656L317.339 194.642L317.323 213.305L360.241 212.041L329.012 242.529L342.93 256.423L329.709 269.624L361 299.124L317.322 298.6L317.339 318.205L298.692 318.191L299.96 361.241L269.397 329.934L255.557 343.797L242.43 330.65L212.876 362L213.401 318.189L193.775 318.205L193.79 299.692L150.761 300.959L182.123 270.339L168.184 256.423L181.271 243.355L150 213.876L193.791 214.4L193.775 194.642L212.304 194.655L211.041 151.759L241.584 183.045L255.557 169.051L268.698 182.213L298.126 151L297.6 194.656ZM255.106 211.258L221.828 177.173L223.231 224.789L175.597 224.217L210.258 256.894L176.173 290.172L223.789 288.771L223.217 336.403L255.895 301.742L289.173 335.826L287.771 288.211L335.403 288.783L300.742 256.106L334.827 222.828L287.212 224.229L287.783 176.596L255.106 211.258ZM249.318 323.345L255.557 329.594L262.386 322.753L256.021 316.234L249.318 323.345ZM203.824 299.395L203.817 308.163L213.521 308.155L213.63 299.107L203.824 299.395ZM298.396 308.155L307.296 308.163L307.288 298.479L298.108 298.37L298.396 308.155ZM182.385 256.422L189.303 263.329L195.766 257.021L188.576 250.243L182.385 256.422ZM315.236 255.979L322.404 262.736L328.727 256.423L321.832 249.539L315.236 255.979ZM203.825 214.521L212.893 214.63L212.599 204.689L203.817 204.683L203.825 214.521ZM297.48 204.69L297.37 213.893L307.289 213.6L307.296 204.683L297.48 204.69ZM248.595 190.225L254.98 196.766L261.812 189.517L255.557 183.252L248.595 190.225Z" fill="#FABD2F"/>
<path d="M252.591 232.581L255.502 235.564L258.363 232.531L270.177 219.998L269.971 237.221L269.921 241.39L274.089 241.267L291.304 240.76L278.981 252.792L275.997 255.704L279.031 258.565L291.563 270.379L274.341 270.172L270.171 270.123L270.295 274.29L270.801 291.506L258.77 279.183L255.857 276.199L252.997 279.232L241.182 291.765L241.389 274.543L241.438 270.373L237.272 270.497L220.055 271.003L232.379 258.971L235.362 256.059L232.329 253.199L219.796 241.384L237.019 241.59L241.188 241.64L241.065 237.473L240.558 220.257L252.591 232.581Z" stroke="#FABD2F" stroke-width="8"/>
</g>
<defs>
<clipPath id="clip0_1_2">
<rect width="512" height="512" fill="white"/>
</clipPath>
</defs>
</svg>
